Coordinates
version=1
nRows=54
nColumns=12
inDegrees=yes

Units are S.I. units (second, meters, Newtons, ...)
Angles are in degrees

endheader
time	SC_y	SC_z	SC_x	AC_y	AC_z	AC_x	GH_y	GH_z	GH_yy	EL_x	PS_y
       0.0               -34.2          29.74          42.79          61.08          5.607         0.5168         -89.92          4.777          107.5          97.01          95.91
   0.03469               -34.2          29.73          42.78          61.08          5.606         0.5192         -89.92          4.784          107.5           97.0          95.91
   0.06938              -34.21          29.73          42.78          61.08          5.605         0.5217         -89.93           4.79          107.5          96.99          95.91
    0.1041              -34.21          29.72          42.78          61.08          5.604         0.5244         -89.94          4.798          107.5          96.98           95.9
    0.1388              -34.21          29.72          42.77          61.08          5.603         0.5273         -89.94          4.806          107.5          96.97           95.9
    0.1735              -34.22          29.71          42.77          61.08          5.602         0.5304         -89.95          4.814          107.5          96.96           95.9
    0.2081              -34.22           29.7          42.76          61.08          5.601         0.5336         -89.95          4.823          107.5          96.94           95.9
    0.2428              -34.22           29.7          42.76          61.08          5.599         0.5371         -89.96          4.832          107.5          96.93           95.9
    0.2775              -34.23          29.69          42.75          61.08          5.598         0.5408         -89.97          4.842          107.4          96.92          95.89
    0.3122              -34.23          29.68          42.75          61.08          5.596         0.5448         -89.98          4.853          107.4           96.9          95.89
    0.3469              -34.24          29.67          42.74          61.08          5.595         0.5491         -89.98          4.865          107.4          96.89          95.89
    0.3816              -34.24          29.66          42.73          61.08          5.593         0.5538         -89.99          4.878          107.4          96.87          95.88
    0.4163              -34.25          29.65          42.72          61.08          5.591         0.5587          -90.0          4.891          107.4          96.85          95.88
     0.451              -34.26          29.64          42.72          61.07          5.589         0.5641         -90.01          4.906          107.4          96.83          95.88
    0.4857              -34.26          29.63          42.71          61.07          5.586           0.57         -90.03          4.922          107.4          96.81          95.87
    0.5204              -34.27          29.62           42.7          61.07          5.584         0.5763         -90.04          4.939          107.4          96.79          95.87
    0.5551              -34.28          29.61          42.69          61.07          5.581         0.5832         -90.05          4.958          107.4          96.76          95.86
    0.5897              -34.29          29.59          42.68          61.07          5.578         0.5906         -90.07          4.978          107.3          96.74          95.86
    0.6244               -34.3          29.58          42.66          61.07          5.575         0.5988         -90.08            5.0          107.3          96.71          95.85
    0.6591              -34.31          29.56          42.65          61.06          5.572         0.6078          -90.1          5.025          107.3          96.67          95.85
    0.6938              -34.32          29.54          42.63          61.06          5.568         0.6176         -90.12          5.051          107.3          96.64          95.84
    0.7285              -34.33          29.52          42.62          61.06          5.564         0.6284         -90.14          5.081          107.3           96.6          95.83
    0.7632              -34.35          29.49           42.6          61.06          5.559         0.6404         -90.17          5.113          107.2          96.56          95.82
    0.7979              -34.36          29.47          42.58          61.05          5.554         0.6536         -90.19          5.149          107.2          96.51          95.81
    0.8326              -34.38          29.44          42.56          61.05          5.548         0.6683         -90.22          5.189          107.2          96.46           95.8
    0.8673               -34.4          29.41          42.53          61.05          5.542         0.6847         -90.25          5.234          107.2           96.4          95.79
     0.902              -34.42          29.37           42.5          61.04          5.535         0.7031         -90.29          5.284          107.1          96.33          95.78
    0.9367              -34.45          29.33          42.47          61.04          5.527         0.7238         -90.33           5.34          107.1          96.25          95.76
    0.9713              -34.48          29.28          42.44          61.03          5.518         0.7472         -90.38          5.404          107.0          96.17          95.75
     1.006              -34.51          29.23           42.4          61.03          5.508         0.7737         -90.43          5.476          107.0          96.07          95.73
     1.041              -34.54          29.17          42.35          61.02          5.496          0.804         -90.49          5.559          106.9          95.96          95.71
     1.075              -34.58          29.11           42.3          61.01          5.482         0.8388         -90.56          5.653          106.9          95.84          95.68
      1.11              -34.63          29.03          42.24           61.0          5.467          0.879         -90.64          5.762          106.8          95.69          95.65
     1.145              -34.69          28.93          42.17          60.99          5.449         0.9256         -90.73          5.889          106.7          95.52          95.62
     1.179              -34.75          28.83          42.08          60.98          5.428         0.9802         -90.84          6.038          106.6          95.32          95.58
     1.214              -34.83           28.7          41.98          60.96          5.403          1.045         -90.97          6.213          106.4          95.09          95.53
     1.249              -34.92          28.55          41.87          60.94          5.373          1.121         -91.12          6.421          106.3          94.81          95.48
     1.284              -35.03          28.37          41.73          60.92          5.338          1.213          -91.3           6.67          106.1          94.48          95.41
     1.318              -35.16          28.15          41.56           60.9          5.295          1.324         -91.52          6.972          105.9          94.07          95.33
     1.353              -35.33          27.89          41.35          60.87          5.242          1.459         -91.79          7.341          105.6          93.58          95.24
     1.388              -35.53          27.56           41.1          60.83          5.177          1.626         -92.12          7.796          105.3          92.98          95.12
     1.422              -35.78          27.15          40.78          60.78          5.097          1.835         -92.54          8.363          104.9          92.22          94.97
     1.457              -36.09          26.64          40.38          60.72          4.995          2.097         -93.06          9.078          104.4          91.26          94.78
     1.492              -36.49          25.98          39.87          60.64          4.866          2.431         -93.72          9.986          103.7          90.05          94.54
     1.526               -37.0          25.14          39.22          60.54            4.7          2.858         -94.57          11.15          102.9           88.5          94.24
     1.561              -37.66          24.07          38.39          60.41          4.488          3.407         -95.66          12.64          101.8          86.51          93.85
     1.596              -38.49          22.69          37.32          60.25          4.216          4.107         -97.05          14.55          100.4          83.96          93.34
      1.63              -39.55          20.96          35.98          60.04          3.875          4.988          -98.8          16.94          98.64          80.76          92.72
     1.665              -40.83          18.86          34.35          59.79           3.46          6.061         -100.9          19.86          96.52          76.86          91.95
       1.7              -42.32          16.42          32.45           59.5          2.978          7.305         -103.4          23.25          94.06          72.34          91.06
     1.735              -43.93          13.77           30.4          59.19          2.456          8.653         -106.1          26.91          91.39          67.45           90.1
     1.769              -45.54          11.13          28.35          58.88          1.934           10.0         -108.8          30.58          88.73          62.56          89.13
     1.804              -47.03          8.689          26.46          58.59          1.453          11.24         -111.2          33.97          86.26          58.04          88.24
     1.839              -48.32          6.583          24.82          58.34          1.037          12.32         -113.4          36.89          84.14          54.14          87.48
